# xmcd CD database file generated by Grip 2.92
# 
# Track frame offsets:
#       150
#       16186
#       30455
#       53194
#       68508
#       86487
#       95228
#       116993
#       136312
#       149479
#       159655
#       177506
#       195608
#       212231
# 
# Disc length: 3066 seconds
# 
# Revision: 3
# Processed by: cddbd v1.4PL0 Copyright (c) Steve Scherf et al.
# Submitted via: Grip 2.92
# 
DISCID=cb0bf80e
DTITLE=Various Artist - Out On The Streets - Disc 1
DYEAR=1900
DGENRE=
TTITLE0=I Hate To See You Leave - Kevin Serey
TTITLE1=Thanksgiving - Matt Purkey
TTITLE2=Friday Night - Mark Babb
TTITLE3=For You - Mitchell Jessie
TTITLE4=Out On The Street - Jim Hiller
TTITLE5=Biggest, Pretty, Shiny - Marishah Paddock
TTITLE6=Tell Julia Good-Bye - Greg Blitz
TTITLE7=Closed Doors - Billy Donth
TTITLE8=The Monkey Man Shuffle - Bezerkel
TTITLE9=Darkened Days - Robert Cramer
TTITLE10=Resistance And Leftovers - Michael Haeflinger
TTITLE11=Laura's Song - Cammie Brewer
TTITLE12=99 Hundred 1,000 Ways - Thomas Brimm
TTITLE13=Call Me Home - Dave Shields
EXTD=
EXTT0=
EXTT1=
EXTT2=
EXTT3=
EXTT4=
EXTT5=
EXTT6=
EXTT7=
EXTT8=
EXTT9=
EXTT10=
EXTT11=
EXTT12=
EXTT13=
PLAYORDER=
